#N canvas 1365 603 1056 711 12;
#X obj 12 132 tgl 15 0 empty empty empty 17 7 0 10 #fcfcfc #000000 #000000 0 1;
#X msg 12 157 \; pd dsp \$1;
#X floatatom 623 646 5 0 0 0 - - - 0;
#X obj 695 471 vsl 19 162 0 1 0 0 empty empty empty 0 -9 0 12 #fcfcfc #000000 #000000 0 1;
#X text 677 643 volume control slider;
#X obj 623 583 loadbang;
#X obj 95 314 tgl 19 0 empty empty empty 0 -10 0 12 #fcfcfc #000000 #000000 0 1;
#X obj 302 189 hradio 19 1 0 16 empty empty empty 0 -10 0 12 #fcfcfc #000000 #000000 0;
#X obj 555 631 *~;
#X obj 543 681 dac~;
#X obj 300 246 select 0 7 1 8 2 9;
#X obj 450 246 select 3 10 4 6 11 13 15 5 12 14;
#X obj 555 584 osc~;
#X text 441 293 c3;
#X text 496 295 d3;
#X text 725 291 g3;
#X text 677 293 f3;
#X text 557 295 e3;
#X text 7 318 toggle riff;
#X msg 623 615 0;
#X msg 365 315 73.41;
#X msg 603 315 73.41;
#X msg 423 315 130.81;
#X msg 481 316 146.83;
#X msg 541 316 174.61;
#X msg 655 316 164.81;
#X msg 711 316 195.99;
#X text 382 295 d2;
#X text 622 292 d2;
#X text 402 214 selectors to choose which note to play in 16 note riff;
#X obj 312 124 f;
#X obj 363 121 + 1;
#X obj 302 160 mod 16;
#X text 265 26 this patch plays the opening bass line from Schism by Tool, f 29;
#X floatatom 241 364 5 0 0 0 - - - 0;
#X obj 241 340 expr 1/$f1;
#X text 6 9 Nathan Prieto UCSC CMPM 151 4/17/23;
#X text 7 195 dsp control;
#X text 159 287 switch between eights and triplet 16ths, f 10;
#X obj 282 90 metro 0.5 166 permin;
#X msg 235 302 3.3;
#X msg 278 301 1.3;
#X obj 98 81 r ToggleMusic;
#X obj 295 364 r ChangeBPM;
#X obj 331 399 *;
#X floatatom 342 435 5 0 0 0 - - - 0;
#X connect 0 0 1 0;
#X connect 2 0 8 1;
#X connect 3 0 2 0;
#X connect 5 0 19 0;
#X connect 6 0 12 0;
#X connect 6 0 39 0;
#X connect 7 0 10 0;
#X connect 7 0 11 0;
#X connect 8 0 9 0;
#X connect 8 0 9 1;
#X connect 10 0 20 0;
#X connect 10 0 40 0;
#X connect 10 1 20 0;
#X connect 10 1 40 0;
#X connect 10 2 22 0;
#X connect 10 2 40 0;
#X connect 10 3 22 0;
#X connect 10 3 40 0;
#X connect 10 4 23 0;
#X connect 10 4 40 0;
#X connect 10 5 23 0;
#X connect 10 5 40 0;
#X connect 10 6 41 0;
#X connect 11 0 24 0;
#X connect 11 1 24 0;
#X connect 11 2 21 0;
#X connect 11 3 21 0;
#X connect 11 4 21 0;
#X connect 11 5 21 0;
#X connect 11 6 21 0;
#X connect 11 7 25 0;
#X connect 11 8 25 0;
#X connect 11 9 26 0;
#X connect 12 0 8 0;
#X connect 19 0 2 0;
#X connect 20 0 12 0;
#X connect 21 0 12 0;
#X connect 22 0 12 0;
#X connect 23 0 12 0;
#X connect 24 0 12 0;
#X connect 25 0 12 0;
#X connect 26 0 12 0;
#X connect 30 0 31 0;
#X connect 30 0 32 0;
#X connect 31 0 30 1;
#X connect 32 0 7 0;
#X connect 34 0 44 0;
#X connect 35 0 34 0;
#X connect 39 0 30 0;
#X connect 40 0 35 0;
#X connect 41 0 35 0;
#X connect 42 0 6 0;
#X connect 42 0 0 0;
#X connect 43 0 44 1;
#X connect 44 0 45 0;
#X connect 45 0 39 1;
