#N canvas 836 143 1920 997 12;
#N canvas 1269 21 427 444 oscReceive 0;
#X obj 55 184 netreceive -u -b;
#X msg 78 143 listen 0;
#X text 152 143 stop listening;
#X text 64 58 packets from network;
#X text 173 177 UDP packets \, binary output, f 13;
#X obj 45 314 print;
#X obj 45 272 oscparse;
#X text 150 114 listen on port 8000;
#X obj 177 269 oscparse;
#X obj 177 293 list trim;
#X floatatom 177 363 5 0 0 0 - - - 0;
#X text 241 267 Parse the OSC message;
#X obj 177 319 route unity;
#X msg 66 115 listen 8000;
#X obj 66 84 loadbang;
#X obj 177 390 s oscDamageEnemy;
#X obj 176 340 route damageenemy;
#X connect 0 0 6 0;
#X connect 0 0 8 0;
#X connect 1 0 0 0;
#X connect 6 0 5 0;
#X connect 8 0 9 0;
#X connect 9 0 12 0;
#X connect 10 0 15 0;
#X connect 12 0 16 0;
#X connect 13 0 0 0;
#X connect 14 0 13 0;
#X connect 16 0 10 0;
#X restore 47 142 pd oscReceive;
#X obj 47 36 tgl 15 0 empty empty empty 17 7 0 10 #fcfcfc #000000 #000000 0 1;
#X msg 47 61 \; pd dsp \$1;
#N canvas 698 27 450 300 oscSend 1;
#X msg 158 207 disconnect;
#X obj 61 253 netsend -u -b;
#X obj 59 55 list prepend send;
#X obj 59 80 list trim;
#X msg 150 175 connect 127.0.0.1 8001;
#X obj 59 29 r oscOut;
#X text 301 163 send to port 8001;
#X msg 147 148 connect localhost 8001;
#X obj 147 108 loadbang;
#X connect 0 0 1 0;
#X connect 2 0 3 0;
#X connect 3 0 1 0;
#X connect 4 0 1 0;
#X connect 5 0 2 0;
#X connect 7 0 1 0;
#X connect 8 0 7 0;
#X restore 47 118 pd oscSend;
#X floatatom 465 60 5 0 0 0 - - - 0;
#X obj 783 362 vline~;
#X obj 556 523 *~;
#X floatatom 410 301 5 0 0 0 - - - 0;
#X obj 525 29 r oscDamageEnemy;
#X obj 567 61 bng 19 250 50 0 empty empty empty 0 -10 0 12 #fcfcfc #000000 #000000;
#X obj 546 599 dac~;
#X obj 410 159 * -1;
#X obj 410 190 + 1;
#X obj 556 558 *~;
#X obj 302 148 vsl 19 162 0 1 0 0 empty empty Volume\ Slider 0 -9 0 12 #fcfcfc #000000 #000000 0 1;
#X floatatom 302 325 5 0 0 0 - - - 0;
#X obj 410 93 clip 0 40;
#X obj 410 128 / 40;
#X msg 783 311 1 25 \, 0 500 500;
#X msg 530 203 read -resize roar.wav roar1data;
#X obj 530 234 soundfiler;
#X obj 530 264 expr 44100/$f1;
#X obj 530 332 phasor~;
#X obj 530 361 *~;
#N canvas 0 50 450 250 (subpatch) 0;
#X array roar1data 63360 float 2;
#X coords 0 1 63360 -1 200 140 1;
#X restore 1510 79 graph;
#X obj 530 385 tabread4~ roar1data;
#X floatatom 707 252 5 0 0 0 - - - 0;
#X obj 667 302 * 1;
#X obj 669 270 bng 19 250 50 0 empty empty empty 0 -10 0 12 #fcfcfc #000000 #000000;
#X msg 571 171 0;
#X obj 866 133 / 100;
#X obj 866 164 + 0.5;
#X obj 866 104 random 101;
#X obj 535 94 random 2;
#X obj 535 128 select 0 1;
#X obj 1046 238 soundfiler;
#X obj 1046 268 expr 44100/$f1;
#X obj 1046 336 phasor~;
#X obj 1046 365 *~;
#X floatatom 1223 256 5 0 0 0 - - - 0;
#X obj 1183 306 * 1;
#X obj 1185 274 bng 19 250 50 0 empty empty empty 0 -10 0 12 #fcfcfc #000000 #000000;
#X msg 1167 170 0;
#X msg 1046 207 read -resize roar2.wav roar2data;
#X obj 1046 389 tabread4~ roar2data;
#N canvas 0 50 450 250 (subpatch) 0;
#X array roar2data 92160 float 2;
#X coords 0 1 92160 -1 200 140 1;
#X restore 1511 270 graph;
#X obj 1254 425 vline~;
#X msg 1254 374 1 25 \, 0 500 500;
#X obj 555 480 *~;
#X obj 974 472 *~;
#X text 126 221 Volume slider to change base volume levels., f 23;
#X text 673 13 Randomly selects between 2 samples \, and randomizes their pitch., f 29;
#X text 312 26 Changes volume level based on proximity to enemy., f 19;
#X text 808 535 Each block of code is similar \, but they must be distinct as they are seperate soundfiles., f 32;
#X text 1255 345 Simple enveloping.;
#X connect 1 0 2 0;
#X connect 4 0 16 0;
#X connect 5 0 48 1;
#X connect 6 0 13 1;
#X connect 7 0 6 0;
#X connect 8 0 4 0;
#X connect 8 0 9 0;
#X connect 9 0 32 0;
#X connect 9 0 33 0;
#X connect 11 0 12 0;
#X connect 12 0 7 0;
#X connect 13 0 10 0;
#X connect 13 0 10 1;
#X connect 14 0 15 0;
#X connect 15 0 13 0;
#X connect 16 0 17 0;
#X connect 17 0 11 0;
#X connect 18 0 5 0;
#X connect 19 0 20 0;
#X connect 20 0 21 0;
#X connect 20 0 23 1;
#X connect 21 0 27 0;
#X connect 22 0 23 0;
#X connect 23 0 25 0;
#X connect 25 0 48 0;
#X connect 26 0 27 1;
#X connect 26 0 28 0;
#X connect 27 0 22 0;
#X connect 28 0 27 0;
#X connect 29 0 22 1;
#X connect 30 0 31 0;
#X connect 31 0 26 0;
#X connect 31 0 39 0;
#X connect 32 0 30 0;
#X connect 33 0 34 0;
#X connect 34 0 19 0;
#X connect 34 0 29 0;
#X connect 34 0 18 0;
#X connect 34 1 43 0;
#X connect 34 1 42 0;
#X connect 34 1 47 0;
#X connect 35 0 36 0;
#X connect 35 0 38 1;
#X connect 36 0 40 0;
#X connect 37 0 38 0;
#X connect 38 0 44 0;
#X connect 39 0 40 1;
#X connect 39 0 41 0;
#X connect 40 0 37 0;
#X connect 41 0 40 0;
#X connect 42 0 37 1;
#X connect 43 0 35 0;
#X connect 44 0 49 0;
#X connect 46 0 49 1;
#X connect 47 0 46 0;
#X connect 48 0 6 1;
#X connect 49 0 6 1;
