#N canvas -1 14 1920 976 10;
#X text 184 305 creation arguments are OSC address;
#X text 186 266 set message to change OSC address;
#X floatatom 50 222 5 0 0 0 - - - 0;
#N canvas 507 216 984 608 oscReceive 0;
#X obj 55 184 netreceive -u -b;
#X msg 78 143 listen 0;
#X text 152 143 stop listening;
#X text 64 58 packets from network;
#X text 173 177 UDP packets \, binary output, f 13;
#X obj 45 314 print;
#X obj 45 272 oscparse;
#X text 150 114 listen on port 8000;
#X obj 177 269 oscparse;
#X obj 177 293 list trim;
#X floatatom 177 396 5 0 0 0 - - - 0;
#X text 241 267 Parse the OSC message;
#X obj 177 319 route unity;
#X msg 66 115 listen 8000;
#X obj 66 84 loadbang;
#X obj 176 373 route gunshot;
#X obj 177 423 s gunshot;
#X floatatom 274 395 5 0 0 0 - - - 0;
#X obj 274 422 s lopCut;
#X obj 273 373 route lopCut;
#X floatatom 389 396 5 0 0 0 - - - 0;
#X obj 389 423 s damageEnemy;
#X floatatom 529 446 5 0 0 0 - - - 0;
#X obj 528 372 route music;
#X obj 529 476 s ToggleMusic;
#X obj 528 411 route toggleMusic;
#X obj 661 411 route changeBPM;
#X floatatom 662 448 5 0 0 0 - - - 0;
#X obj 662 478 s ChangeBPM;
#X obj 388 373 route damageEnemy;
#X connect 0 0 6 0;
#X connect 0 0 8 0;
#X connect 1 0 0 0;
#X connect 6 0 5 0;
#X connect 8 0 9 0;
#X connect 9 0 12 0;
#X connect 10 0 16 0;
#X connect 12 0 15 0;
#X connect 12 0 19 0;
#X connect 12 0 23 0;
#X connect 12 0 29 0;
#X connect 13 0 0 0;
#X connect 14 0 13 0;
#X connect 15 0 10 0;
#X connect 17 0 18 0;
#X connect 19 0 17 0;
#X connect 20 0 21 0;
#X connect 22 0 24 0;
#X connect 23 0 25 0;
#X connect 23 0 26 0;
#X connect 25 0 22 0;
#X connect 26 0 27 0;
#X connect 27 0 28 0;
#X connect 29 0 20 0;
#X restore 47 142 pd oscReceive;
#X obj 47 36 tgl 15 0 empty empty empty 17 7 0 10 #fcfcfc #000000 #000000 0 1;
#X msg 47 61 \; pd dsp \$1;
#X obj 51 306 oscformat PD message;
#X msg 83 267 set PD message;
#N canvas 631 -1085 450 300 oscSend 0;
#X msg 158 207 disconnect;
#X obj 61 253 netsend -u -b;
#X obj 59 55 list prepend send;
#X obj 59 80 list trim;
#X msg 150 175 connect 127.0.0.1 8001;
#X obj 59 29 r oscOut;
#X text 301 163 send to port 8001;
#X msg 147 148 connect localhost 8001;
#X obj 147 108 loadbang;
#X connect 0 0 1 0;
#X connect 2 0 3 0;
#X connect 3 0 1 0;
#X connect 4 0 1 0;
#X connect 5 0 2 0;
#X connect 7 0 1 0;
#X connect 8 0 7 0;
#X restore 47 118 pd oscSend;
#X obj 51 341 s oscOut;
#X obj 853 813 dac~;
#X floatatom 973 654 0 0 120 0 - - - 0;
#X text 1014 654 level \, dB;
#X floatatom 1008 676 0 0 100 0 - - - 0;
#X text 1049 676 liveness \, 0-100;
#X floatatom 1043 700 4 0 5000 0 - - - 0;
#X floatatom 1078 723 0 0 100 0 - - - 0;
#X text 1091 698 crossover frequency \, Hz.;
#X text 1114 725 HF damping \, percent;
#X obj 903 749 rev3~ 75 90 400 100;
#X obj 756 638 lop~ 4000;
#X obj 508 605 line;
#X msg 454 575 400 250 0;
#X msg 533 575 4000 250 0;
#X obj 454 535 select 0 1;
#X obj 454 481 r lopCut;
#X floatatom 454 508 5 0 0 0 - - - 0;
#X text 944 766 Global reverb;
#X text 815 639 Global lowpass;
#X text 601 574 LERP out cutoff;
#X text 363 575 LERP in cutoff;
#N canvas 248 79 1436 618 gunshot 0;
#X obj 269 396 *~;
#X obj 290 269 vline~;
#X obj 217 353 osc~;
#X floatatom 224 273 5 0 0 0 - - - 0;
#X obj 178 305 *~;
#X obj 131 275 vline~;
#X msg 224 248 77;
#X obj 538 49 r gunshot;
#X obj 353 157 bng 16 250 50 0 empty empty empty 0 -8 0 10 #fcfcfc #000000 #000000;
#X msg 290 248 1 50 \, 0 1000 50;
#X msg 131 248 1 0 \, 0 1000 0;
#X obj 403 349 noise~;
#X obj 431 395 *~;
#X obj 458 275 vline~;
#X obj 316 489 *~ 0.5;
#X msg 458 251 1 0 \, 0 350 0;
#N canvas 902 -709 616 410 filterbank 0;
#X obj 34 250 *~;
#X floatatom 49 222 5 0 0 0 - - - 0;
#X obj 34 111 lop~ 4000;
#X floatatom 223 91 5 0 0 0 - - - 0;
#X floatatom 262 92 5 0 0 0 - - - 0;
#X floatatom 84 81 5 0 0 0 - - - 0;
#X obj 381 114 hip~ 200;
#X floatatom 425 87 5 0 0 0 - - - 0;
#X obj 199 260 *~;
#X floatatom 216 236 5 0 0 0 - - - 0;
#X obj 379 249 *~;
#X floatatom 396 225 5 0 0 0 - - - 0;
#X obj 199 10 inlet~;
#X obj 175 354 outlet~;
#X obj 86 52 receive lopFreq;
#X obj 50 193 receive lopGain;
#X obj 224 54 receive bpFreq;
#X obj 215 207 receive bpGain;
#X obj 425 61 receive hpFreq;
#X obj 397 197 receive hpGain;
#X obj 196 125 bp~ 200 10;
#X connect 0 0 13 0;
#X connect 1 0 0 1;
#X connect 2 0 0 0;
#X connect 3 0 20 1;
#X connect 4 0 20 2;
#X connect 5 0 2 1;
#X connect 6 0 10 0;
#X connect 7 0 6 1;
#X connect 8 0 13 0;
#X connect 9 0 8 1;
#X connect 10 0 13 0;
#X connect 11 0 10 1;
#X connect 12 0 2 0;
#X connect 12 0 6 0;
#X connect 12 0 20 0;
#X connect 14 0 5 0;
#X connect 15 0 1 0;
#X connect 16 0 3 0;
#X connect 17 0 9 0;
#X connect 18 0 7 0;
#X connect 19 0 11 0;
#X connect 20 0 8 0;
#X restore 406 448 pd filterbank;
#X obj 1193 283 hsl 128 15 0 1 0 1 lopGain lopGain LowPass_Gain -2 -8 0 10 #fcfcfc #000000 #000000 1270 1;
#X obj 1050 284 hsl 128 15 50 4000 0 1 lopFreq lopFreq LowPass_Frequency -2 -8 0 10 #fcfcfc #000000 #000000 1608 1;
#X obj 1193 326 hsl 128 15 0 1 0 1 bpGain bpGain BandPass_Gain -2 -8 0 10 #fcfcfc #000000 #000000 6985 1;
#X obj 1049 325 hsl 128 15 1000 4000 0 1 bpFreq bpFreq BandPass_Frequency -2 -8 0 10 #fcfcfc #000000 #000000 7947 1;
#X obj 1193 370 hsl 128 15 0 1 0 1 hpGain hpGain HighPass_Gain -2 -8 0 10 #fcfcfc #000000 #000000 1905 1;
#X obj 1047 370 hsl 128 15 1000 4000 0 1 hpFreq hpFreq HighPass_Frequency -2 -8 0 10 #fcfcfc #000000 #000000 11007 1;
#X obj 652 375 s lopFreq;
#X obj 627 395 s lopGain;
#X obj 780 375 s bpFreq;
#X obj 755 395 s bpGain;
#X obj 902 373 s hpFreq;
#X obj 876 393 s hpGain;
#X msg 652 236 550;
#X msg 630 255 0.1;
#X msg 779 234 3385;
#X msg 899 237 3600;
#X msg 756 254 0.55;
#X msg 876 257 0.15;
#X obj 754 164 bng 16 250 50 0 empty empty empty 0 -8 0 10 #fcfcfc #000000 #000000;
#X obj 784 324 line;
#X obj 783 347 *;
#X msg 784 296 1 0 \, 0.85 250 0;
#X obj 553 84 bng 16 250 50 0 empty empty empty 0 -8 0 10 #fcfcfc #000000 #000000;
#X text 88 353 Bass boom of gunshot;
#X text 129 229 Automation of pitch;
#X text 277 229 Envelope for bass boom;
#X text 440 234 Envelope for noise;
#X text 307 348 Noise generator;
#X text 489 447 Filterbank for noise;
#X text 1087 237 Visual Controls for Filter Bank;
#X text 792 162 Noise Filter Bank Settings;
#X text 271 156 Generators;
#X text 783 278 Automate BPFreq;
#X obj 316 526 outlet~;
#X connect 0 0 14 0;
#X connect 1 0 0 1;
#X connect 2 0 0 0;
#X connect 3 0 4 1;
#X connect 4 0 2 0;
#X connect 5 0 4 0;
#X connect 6 0 3 0;
#X connect 7 0 39 0;
#X connect 8 0 10 0;
#X connect 8 0 6 0;
#X connect 8 0 15 0;
#X connect 8 0 9 0;
#X connect 9 0 1 0;
#X connect 10 0 5 0;
#X connect 11 0 12 0;
#X connect 12 0 16 0;
#X connect 13 0 12 1;
#X connect 14 0 50 0;
#X connect 15 0 13 0;
#X connect 16 0 14 0;
#X connect 29 0 23 0;
#X connect 30 0 24 0;
#X connect 31 0 37 1;
#X connect 32 0 27 0;
#X connect 33 0 26 0;
#X connect 34 0 28 0;
#X connect 35 0 33 0;
#X connect 35 0 31 0;
#X connect 35 0 29 0;
#X connect 35 0 30 0;
#X connect 35 0 34 0;
#X connect 35 0 32 0;
#X connect 35 0 38 0;
#X connect 36 0 37 0;
#X connect 37 0 25 0;
#X connect 38 0 36 0;
#X connect 39 0 8 0;
#X connect 39 0 35 0;
#X restore 639 311 pd gunshot;
#N canvas -157 0 1920 997 damageEnemy 0;
#X floatatom 394 105 5 0 0 0 - - - 0;
#X obj 697 419 vline~;
#X obj 488 671 *~;
#X floatatom 339 346 5 0 0 0 - - - 0;
#X obj 496 106 bng 19 250 50 0 empty empty empty 0 -10 0 12 #fcfcfc #000000 #000000;
#X obj 339 204 * -1;
#X obj 339 235 + 1;
#X obj 339 138 clip 0 40;
#X obj 339 173 / 40;
#X msg 697 368 1 25 \, 0 500 500;
#X msg 462 351 read -resize roar.wav roar1data;
#X obj 462 382 soundfiler;
#X obj 462 412 expr 44100/$f1;
#X obj 462 480 phasor~;
#X obj 462 509 *~;
#N canvas 0 50 450 250 (subpatch) 0;
#X array roar1data 63360 float 2;
#X coords 0 1 63360 -1 200 140 1;
#X restore 1439 124 graph;
#X obj 462 533 tabread4~ roar1data;
#X floatatom 639 400 5 0 0 0 - - - 0;
#X obj 599 450 * 1;
#X obj 601 418 bng 19 250 50 0 empty empty empty 0 -10 0 12 #fcfcfc #000000 #000000;
#X msg 503 319 0;
#X obj 804 130 / 100;
#X obj 804 161 + 0.5;
#X obj 804 101 random 101;
#X obj 464 139 random 2;
#X obj 464 173 select 0 1;
#X obj 1078 364 soundfiler;
#X obj 1078 394 expr 44100/$f1;
#X obj 1078 462 phasor~;
#X obj 1078 491 *~;
#X floatatom 1255 382 5 0 0 0 - - - 0;
#X obj 1215 432 * 1;
#X obj 1217 400 bng 19 250 50 0 empty empty empty 0 -10 0 12 #fcfcfc #000000 #000000;
#X msg 1199 296 0;
#X msg 1078 333 read -resize roar2.wav roar2data;
#X obj 1078 515 tabread4~ roar2data;
#N canvas 0 50 450 250 (subpatch) 0;
#X array roar2data 92160 float 2;
#X coords 0 1 92160 -1 200 140 1;
#X restore 1440 315 graph;
#X obj 1286 551 vline~;
#X msg 1286 500 1 25 \, 0 500 500;
#X obj 487 628 *~;
#X obj 1006 598 *~;
#X text 422 23 Randomly selects between 2 samples \, and randomizes their pitch., f 29;
#X text 241 71 Changes volume level based on proximity to enemy., f 19;
#X text 740 683 Each block of code is similar \, but they must be distinct as they are seperate soundfiles., f 32;
#X text 1287 471 Simple enveloping.;
#X obj 488 742 outlet~;
#X text 1120 250 Sample 2 Block;
#X text 464 301 Sample 1 Block;
#X text 748 72 Random pitch between 0.5 and 1.5;
#X obj 454 74 r damageEnemy;
#X obj 488 706 *~ 0.5;
#X connect 0 0 7 0;
#X connect 1 0 39 1;
#X connect 2 0 50 0;
#X connect 3 0 2 0;
#X connect 4 0 23 0;
#X connect 4 0 24 0;
#X connect 5 0 6 0;
#X connect 6 0 3 0;
#X connect 7 0 8 0;
#X connect 8 0 5 0;
#X connect 9 0 1 0;
#X connect 10 0 11 0;
#X connect 11 0 12 0;
#X connect 11 0 14 1;
#X connect 12 0 18 0;
#X connect 13 0 14 0;
#X connect 14 0 16 0;
#X connect 16 0 39 0;
#X connect 17 0 18 1;
#X connect 17 0 19 0;
#X connect 18 0 13 0;
#X connect 19 0 18 0;
#X connect 20 0 13 1;
#X connect 21 0 22 0;
#X connect 22 0 17 0;
#X connect 22 0 30 0;
#X connect 23 0 21 0;
#X connect 24 0 25 0;
#X connect 25 0 10 0;
#X connect 25 0 20 0;
#X connect 25 0 9 0;
#X connect 25 1 34 0;
#X connect 25 1 33 0;
#X connect 25 1 38 0;
#X connect 26 0 27 0;
#X connect 26 0 29 1;
#X connect 27 0 31 0;
#X connect 28 0 29 0;
#X connect 29 0 35 0;
#X connect 30 0 31 1;
#X connect 30 0 32 0;
#X connect 31 0 28 0;
#X connect 32 0 31 0;
#X connect 33 0 28 1;
#X connect 34 0 26 0;
#X connect 35 0 40 0;
#X connect 37 0 40 1;
#X connect 38 0 37 0;
#X connect 39 0 2 1;
#X connect 40 0 2 1;
#X connect 49 0 0 0;
#X connect 49 0 4 0;
#X connect 50 0 45 0;
#X restore 755 311 pd damageEnemy;
#N canvas -118 56 1920 997 backgroundMusic 0;
#X obj 206 342 tgl 19 0 empty empty empty 0 -10 0 12 #fcfcfc #000000 #000000 0 1;
#X obj 413 217 hradio 19 1 0 16 empty empty empty 0 -10 0 12 #fcfcfc #000000 #000000 0;
#X obj 411 274 select 0 7 1 8 2 9;
#X obj 561 274 select 3 10 4 6 11 13 15 5 12 14;
#X obj 666 612 osc~;
#X text 552 321 c3;
#X text 607 323 d3;
#X text 836 319 g3;
#X text 788 321 f3;
#X text 668 323 e3;
#X text 118 346 toggle riff;
#X msg 476 343 73.41;
#X msg 714 343 73.41;
#X msg 534 343 130.81;
#X msg 592 344 146.83;
#X msg 652 344 174.61;
#X msg 766 344 164.81;
#X msg 822 344 195.99;
#X text 493 323 d2;
#X text 733 320 d2;
#X text 513 242 selectors to choose which note to play in 16 note riff;
#X obj 423 152 f;
#X obj 474 149 + 1;
#X obj 413 188 mod 16;
#X text 376 54 this patch plays the opening bass line from Schism by Tool, f 29;
#X floatatom 352 392 5 0 0 0 - - - 0;
#X obj 352 368 expr 1/$f1;
#X text 270 315 switch between eights and triplet 16ths, f 10;
#X obj 393 118 metro 0.5 166 permin;
#X msg 346 330 3.3;
#X msg 389 329 1.3;
#X obj 209 109 r ToggleMusic;
#X obj 406 392 r ChangeBPM;
#X obj 442 427 *;
#X floatatom 453 463 5 0 0 0 - - - 0;
#X obj 666 708 outlet~;
#X obj 666 659 *~ 0.5;
#X connect 0 0 4 0;
#X connect 0 0 28 0;
#X connect 1 0 2 0;
#X connect 1 0 3 0;
#X connect 2 0 11 0;
#X connect 2 0 29 0;
#X connect 2 1 11 0;
#X connect 2 1 29 0;
#X connect 2 2 13 0;
#X connect 2 2 29 0;
#X connect 2 3 13 0;
#X connect 2 3 29 0;
#X connect 2 4 14 0;
#X connect 2 4 29 0;
#X connect 2 5 14 0;
#X connect 2 5 29 0;
#X connect 2 6 30 0;
#X connect 3 0 15 0;
#X connect 3 1 15 0;
#X connect 3 2 12 0;
#X connect 3 3 12 0;
#X connect 3 4 12 0;
#X connect 3 5 12 0;
#X connect 3 6 12 0;
#X connect 3 7 16 0;
#X connect 3 8 16 0;
#X connect 3 9 17 0;
#X connect 4 0 36 0;
#X connect 11 0 4 0;
#X connect 12 0 4 0;
#X connect 13 0 4 0;
#X connect 14 0 4 0;
#X connect 15 0 4 0;
#X connect 16 0 4 0;
#X connect 17 0 4 0;
#X connect 21 0 22 0;
#X connect 21 0 23 0;
#X connect 22 0 21 1;
#X connect 23 0 1 0;
#X connect 25 0 33 0;
#X connect 26 0 25 0;
#X connect 28 0 21 0;
#X connect 29 0 26 0;
#X connect 30 0 26 0;
#X connect 31 0 0 0;
#X connect 32 0 33 1;
#X connect 33 0 34 0;
#X connect 34 0 28 1;
#X connect 36 0 35 0;
#X restore 900 312 pd backgroundMusic;
#X obj 1135 272 vsl 19 162 0 1 0 0 empty empty Volume\ Slider 0 -9 0 12 #fcfcfc #000000 #000000 0 1;
#X floatatom 1135 449 5 0 0 0 - - - 0;
#X obj 756 583 *~;
#X connect 2 0 6 0;
#X connect 4 0 5 0;
#X connect 6 0 9 0;
#X connect 7 0 6 0;
#X connect 11 0 19 2;
#X connect 13 0 19 3;
#X connect 15 0 19 4;
#X connect 16 0 19 5;
#X connect 19 0 10 0;
#X connect 19 1 10 1;
#X connect 20 0 19 0;
#X connect 20 0 19 1;
#X connect 20 0 10 0;
#X connect 20 0 10 1;
#X connect 21 0 20 1;
#X connect 22 0 21 0;
#X connect 23 0 21 0;
#X connect 24 0 22 0;
#X connect 24 1 23 0;
#X connect 25 0 26 0;
#X connect 26 0 24 0;
#X connect 31 0 36 0;
#X connect 32 0 36 0;
#X connect 33 0 36 0;
#X connect 34 0 35 0;
#X connect 35 0 36 1;
#X connect 36 0 20 0;
