#N canvas -3 122 1920 976 10;
#X text 279 344 creation arguments are OSC address;
#X text 281 305 set message to change OSC address;
#X text 164 48 1 Set IP Address : network address;
#X text 164 68 2 Set Ports (sending and listening);
#X text 164 87 3 Set OSC Addresses (routing osc data;
#X text 155 26 Key Settings;
#X floatatom 145 261 5 0 0 0 - - - 0;
#N canvas -129 -1294 2400 1246 oscReceive 0;
#X obj 55 184 netreceive -u -b;
#X msg 78 143 listen 0;
#X text 152 143 stop listening;
#X text 64 58 packets from network;
#X text 173 177 UDP packets \, binary output, f 13;
#X obj 45 314 print;
#X obj 45 272 oscparse;
#X text 150 114 listen on port 8000;
#X obj 177 269 oscparse;
#X obj 177 293 list trim;
#X text 241 267 Parse the OSC message;
#X obj 177 319 route unity;
#X msg 66 115 listen 8000;
#X obj 176 340 route gunshot;
#X obj 176 387 s gunshot;
#X connect 0 0 6 0;
#X connect 0 0 8 0;
#X connect 1 0 0 0;
#X connect 6 0 5 0;
#X connect 8 0 9 0;
#X connect 9 0 11 0;
#X connect 11 0 14 0;
#X connect 12 0 0 0;
#X connect 13 0 12 0;
#X connect 14 0 15 0;
#X restore 47 142 pd oscReceive;
#X obj 47 36 tgl 15 0 empty empty empty 17 7 0 10 #fcfcfc #000000 #000000 0 1;
#X msg 47 61 \; pd dsp \$1;
#X obj 146 345 oscformat PD message;
#X msg 178 306 set PD message;
#N canvas 631 -1085 450 300 oscSend 0;
#X msg 158 207 disconnect;
#X obj 61 253 netsend -u -b;
#X obj 59 55 list prepend send;
#X obj 59 80 list trim;
#X msg 150 175 connect 127.0.0.1 8001;
#X obj 59 29 r oscOut;
#X text 301 163 send to port 8001;
#X msg 147 148 connect localhost 8001;
#X restore 47 118 pd oscSend;
#X obj 146 380 s oscOut;
#X obj 848 96 r gunshot;
#X obj 848 126 bng 16 250 50 0 empty empty empty 0 -8 0 10 #fcfcfc #000000 #000000;
#X obj 856 213 vline~;
#X obj 765 230 osc~;
#X floatatom 765 161 5 0 0 0 - - - 0;
#X obj 818 283 *~;
#X obj 812 576 dac~;
#X msg 856 177 1 50 \, 0 1000 50;
#X obj 664 160 vline~;
#X obj 727 197 *~;
#X msg 664 124 1 0 \, 0 1000 0;
#X msg 762 86 75;
#X obj 960 250 noise~;
#X obj 1005 215 vline~;
#X obj 988 285 *~;
#N canvas -349 236 1920 976 filterbank 0;
#X obj 34 250 *~;
#X floatatom 49 222 5 0 0 0 - - - 0;
#X obj 34 111 lop~ 4000;
#X floatatom 223 91 5 0 0 0 - - - 0;
#X floatatom 262 92 5 0 0 0 - - - 0;
#X floatatom 84 81 5 0 0 0 - - - 0;
#X obj 381 114 hip~ 200;
#X floatatom 425 87 5 0 0 0 - - - 0;
#X obj 199 260 *~;
#X floatatom 216 236 5 0 0 0 - - - 0;
#X obj 379 249 *~;
#X floatatom 396 225 5 0 0 0 - - - 0;
#X obj 199 10 inlet~;
#X obj 175 354 outlet~;
#X obj 86 52 receive lopFreq;
#X obj 50 193 receive lopGain;
#X obj 224 54 receive bpFreq;
#X obj 215 207 receive bpGain;
#X obj 425 61 receive hpFreq;
#X obj 397 197 receive hpGain;
#X obj 196 125 bp~ 200 10;
#X connect 0 0 13 0;
#X connect 1 0 0 1;
#X connect 2 0 0 0;
#X connect 3 0 20 1;
#X connect 4 0 20 2;
#X connect 5 0 2 1;
#X connect 6 0 10 0;
#X connect 7 0 6 1;
#X connect 8 0 13 0;
#X connect 9 0 8 1;
#X connect 10 0 13 0;
#X connect 11 0 10 1;
#X connect 12 0 2 0;
#X connect 12 0 6 0;
#X connect 12 0 20 0;
#X connect 14 0 5 0;
#X connect 15 0 1 0;
#X connect 16 0 3 0;
#X connect 17 0 9 0;
#X connect 18 0 7 0;
#X connect 19 0 11 0;
#X connect 20 0 8 0;
#X restore 981 324 pd filterbank;
#X obj 1166 337 s lopFreq;
#X obj 1369 338 s hpFreq;
#X obj 1185 316 s lopGain;
#X obj 1294 316 s bpGain;
#X obj 1388 317 s hpGain;
#X msg 1166 191 1402;
#X msg 1185 169 0.141;
#X msg 1274 191 3622;
#X msg 1293 169 0.771;
#X msg 1368 191 3610;
#X msg 1387 169 0.212;
#X obj 1252 241 line;
#X obj 1275 266 *;
#X msg 1252 214 1 0 \, 0.75 250 0;
#X obj 1275 337 s bpFreq;
#X msg 1005 179 1 0 \, 0 350 0;
#X obj 820 363 *~ 0.5;
#X floatatom 947 407 0 0 120 0 - - - 0;
#X text 989 409 level \, dB;
#X floatatom 984 432 0 0 100 0 - - - 0;
#X text 1024 431 liveness \, 0-100;
#X floatatom 1018 455 4 0 5000 0 - - - 0;
#X floatatom 1053 478 0 0 100 0 - - - 0;
#X text 1066 453 crossover frequency \, Hz.;
#X text 1089 480 HF damping \, percent;
#X obj 878 504 rev3~ 100 90 3000 20;
#X connect 6 0 10 0;
#X connect 8 0 9 0;
#X connect 10 0 13 0;
#X connect 11 0 10 0;
#X connect 14 0 15 0;
#X connect 15 0 21 0;
#X connect 15 0 24 0;
#X connect 15 0 47 0;
#X connect 15 0 45 0;
#X connect 16 0 19 1;
#X connect 17 0 19 0;
#X connect 18 0 23 1;
#X connect 19 0 48 0;
#X connect 21 0 16 0;
#X connect 22 0 23 0;
#X connect 23 0 17 0;
#X connect 24 0 22 0;
#X connect 25 0 18 0;
#X connect 26 0 25 0;
#X connect 27 0 29 0;
#X connect 28 0 29 1;
#X connect 29 0 30 0;
#X connect 30 0 48 0;
#X connect 36 0 31 0;
#X connect 37 0 33 0;
#X connect 38 0 44 1;
#X connect 39 0 34 0;
#X connect 40 0 32 0;
#X connect 41 0 35 0;
#X connect 42 0 36 0;
#X connect 42 0 37 0;
#X connect 42 0 38 0;
#X connect 42 0 39 0;
#X connect 42 0 41 0;
#X connect 42 0 40 0;
#X connect 43 0 44 0;
#X connect 44 0 46 0;
#X connect 45 0 43 0;
#X connect 47 0 28 0;
#X connect 48 0 57 0;
#X connect 48 0 57 1;
#X connect 48 0 20 0;
#X connect 48 0 20 1;
#X connect 49 0 57 2;
#X connect 51 0 57 3;
#X connect 53 0 57 4;
#X connect 54 0 57 5;
#X connect 57 0 20 0;
#X connect 57 1 20 1;
