#N canvas 194 23 1920 976 10;
#X text 279 344 creation arguments are OSC address;
#X text 281 305 set message to change OSC address;
#X text 164 48 1 Set IP Address : network address;
#X text 164 68 2 Set Ports (sending and listening);
#X text 164 87 3 Set OSC Addresses (routing osc data;
#X text 155 26 Key Settings;
#X floatatom 145 261 5 0 0 0 - - - 0;
#N canvas 691 -1167 2400 1246 oscReceive 1;
#X obj 55 184 netreceive -u -b;
#X msg 78 143 listen 0;
#X text 152 143 stop listening;
#X text 64 58 packets from network;
#X text 173 177 UDP packets \, binary output, f 13;
#X obj 45 314 print;
#X obj 45 272 oscparse;
#X text 150 114 listen on port 8000;
#X obj 177 269 oscparse;
#X obj 177 293 list trim;
#X floatatom 177 363 5 0 0 0 - - - 0;
#X text 241 267 Parse the OSC message;
#X obj 177 319 route unity;
#X msg 66 115 listen 8000;
#X obj 66 84 loadbang;
#X obj 176 340 route gunshot;
#X obj 177 390 s gunshot;
#X floatatom 274 362 5 0 0 0 - - - 0;
#X obj 274 389 s lopCut;
#X obj 273 340 route lopCut;
#X connect 0 0 6 0;
#X connect 0 0 8 0;
#X connect 1 0 0 0;
#X connect 6 0 5 0;
#X connect 8 0 9 0;
#X connect 9 0 12 0;
#X connect 10 0 16 0;
#X connect 12 0 15 0;
#X connect 12 0 19 0;
#X connect 13 0 0 0;
#X connect 14 0 13 0;
#X connect 15 0 10 0;
#X connect 17 0 18 0;
#X connect 19 0 17 0;
#X restore 47 142 pd oscReceive;
#X obj 47 36 tgl 15 0 empty empty empty 17 7 0 10 #fcfcfc #000000 #000000 0 1;
#X msg 47 61 \; pd dsp \$1;
#X obj 146 345 oscformat PD message;
#X msg 178 306 set PD message;
#N canvas 631 -1085 450 300 oscSend 0;
#X msg 158 207 disconnect;
#X obj 61 253 netsend -u -b;
#X obj 59 55 list prepend send;
#X obj 59 80 list trim;
#X msg 150 175 connect 127.0.0.1 8001;
#X obj 59 29 r oscOut;
#X text 301 163 send to port 8001;
#X msg 147 148 connect localhost 8001;
#X obj 147 108 loadbang;
#X connect 0 0 1 0;
#X connect 2 0 3 0;
#X connect 3 0 1 0;
#X connect 4 0 1 0;
#X connect 5 0 2 0;
#X connect 7 0 1 0;
#X connect 8 0 7 0;
#X restore 47 118 pd oscSend;
#X obj 146 380 s oscOut;
#X obj 786 433 *~;
#X obj 853 813 dac~;
#X obj 807 306 vline~;
#X obj 734 390 osc~;
#X floatatom 741 310 5 0 0 0 - - - 0;
#X obj 695 342 *~;
#X obj 648 312 vline~;
#X msg 741 285 77;
#X obj 1055 86 r gunshot;
#X obj 870 194 bng 16 250 50 0 empty empty empty 0 -8 0 10 #fcfcfc #000000 #000000;
#X msg 807 285 1 50 \, 0 1000 50;
#X msg 648 285 1 0 \, 0 1000 0;
#X obj 920 386 noise~;
#X obj 948 432 *~;
#X obj 975 312 vline~;
#X obj 833 526 *~ 0.5;
#X msg 975 288 1 0 \, 0 350 0;
#X floatatom 973 654 0 0 120 0 - - - 0;
#X text 1014 654 level \, dB;
#X floatatom 1008 676 0 0 100 0 - - - 0;
#X text 1049 676 liveness \, 0-100;
#X floatatom 1043 700 4 0 5000 0 - - - 0;
#X floatatom 1078 723 0 0 100 0 - - - 0;
#X text 1091 698 crossover frequency \, Hz.;
#X text 1114 725 HF damping \, percent;
#N canvas 902 -709 616 410 filterbank 0;
#X obj 34 250 *~;
#X floatatom 49 222 5 0 0 0 - - - 0;
#X obj 34 111 lop~ 4000;
#X floatatom 223 91 5 0 0 0 - - - 0;
#X floatatom 262 92 5 0 0 0 - - - 0;
#X floatatom 84 81 5 0 0 0 - - - 0;
#X obj 381 114 hip~ 200;
#X floatatom 425 87 5 0 0 0 - - - 0;
#X obj 199 260 *~;
#X floatatom 216 236 5 0 0 0 - - - 0;
#X obj 379 249 *~;
#X floatatom 396 225 5 0 0 0 - - - 0;
#X obj 199 10 inlet~;
#X obj 175 354 outlet~;
#X obj 86 52 receive lopFreq;
#X obj 50 193 receive lopGain;
#X obj 224 54 receive bpFreq;
#X obj 215 207 receive bpGain;
#X obj 425 61 receive hpFreq;
#X obj 397 197 receive hpGain;
#X obj 196 125 bp~ 200 10;
#X connect 0 0 13 0;
#X connect 1 0 0 1;
#X connect 2 0 0 0;
#X connect 3 0 20 1;
#X connect 4 0 20 2;
#X connect 5 0 2 1;
#X connect 6 0 10 0;
#X connect 7 0 6 1;
#X connect 8 0 13 0;
#X connect 9 0 8 1;
#X connect 10 0 13 0;
#X connect 11 0 10 1;
#X connect 12 0 2 0;
#X connect 12 0 6 0;
#X connect 12 0 20 0;
#X connect 14 0 5 0;
#X connect 15 0 1 0;
#X connect 16 0 3 0;
#X connect 17 0 9 0;
#X connect 18 0 7 0;
#X connect 19 0 11 0;
#X connect 20 0 8 0;
#X restore 923 485 pd filterbank;
#X obj 1710 320 hsl 128 15 0 1 0 1 lopGain lopGain LowPass_Gain -2 -8 0 10 #fcfcfc #000000 #000000 1270 1;
#X obj 1567 321 hsl 128 15 50 4000 0 1 lopFreq lopFreq LowPass_Frequency -2 -8 0 10 #fcfcfc #000000 #000000 1608 1;
#X obj 1710 363 hsl 128 15 0 1 0 1 bpGain bpGain BandPass_Gain -2 -8 0 10 #fcfcfc #000000 #000000 6985 1;
#X obj 1566 362 hsl 128 15 1000 4000 0 1 bpFreq bpFreq BandPass_Frequency -2 -8 0 10 #fcfcfc #000000 #000000 7947 1;
#X obj 1710 407 hsl 128 15 0 1 0 1 hpGain hpGain HighPass_Gain -2 -8 0 10 #fcfcfc #000000 #000000 1905 1;
#X obj 1564 407 hsl 128 15 1000 4000 0 1 hpFreq hpFreq HighPass_Frequency -2 -8 0 10 #fcfcfc #000000 #000000 11007 1;
#X obj 1169 412 s lopFreq;
#X obj 1144 432 s lopGain;
#X obj 1297 412 s bpFreq;
#X obj 1272 432 s bpGain;
#X obj 1419 410 s hpFreq;
#X obj 1393 430 s hpGain;
#X msg 1169 273 550;
#X msg 1147 292 0.1;
#X msg 1296 271 3385;
#X msg 1416 274 3600;
#X msg 1273 291 0.55;
#X msg 1393 294 0.15;
#X obj 1271 201 bng 16 250 50 0 empty empty empty 0 -8 0 10 #fcfcfc #000000 #000000;
#X obj 1301 361 line;
#X obj 1300 384 *;
#X msg 1301 333 1 0 \, 0.85 250 0;
#X obj 1070 121 bng 16 250 50 0 empty empty empty 0 -8 0 10 #fcfcfc #000000 #000000;
#X obj 903 749 rev3~ 75 90 400 100;
#X obj 756 638 lop~ 4000;
#X obj 563 602 line;
#X msg 509 572 400 250 0;
#X msg 588 572 4000 250 0;
#X obj 509 532 select 0 1;
#X obj 509 478 r lopCut;
#X floatatom 509 505 5 0 0 0 - - - 0;
#X text 605 390 Bass boom of gunshot;
#X text 646 266 Automation of pitch;
#X text 794 266 Envelope for bass boom;
#X text 957 271 Envelope for noise;
#X text 824 385 Noise generator;
#X text 1006 484 Filterbank for noise;
#X text 944 766 Global reverb;
#X text 815 639 Global lowpass;
#X text 656 571 LERP out cutoff;
#X text 418 572 LERP in cutoff;
#X text 1604 274 Visual Controls for Filter Bank;
#X text 1309 199 Noise Filter Bank Settings;
#X text 788 193 Generators;
#X text 1300 315 Automate BPFreq;
#X connect 6 0 10 0;
#X connect 8 0 9 0;
#X connect 10 0 13 0;
#X connect 11 0 10 0;
#X connect 14 0 29 0;
#X connect 16 0 14 1;
#X connect 17 0 14 0;
#X connect 18 0 19 1;
#X connect 19 0 17 0;
#X connect 20 0 19 0;
#X connect 21 0 18 0;
#X connect 22 0 62 0;
#X connect 23 0 25 0;
#X connect 23 0 21 0;
#X connect 23 0 30 0;
#X connect 23 0 24 0;
#X connect 24 0 16 0;
#X connect 25 0 20 0;
#X connect 26 0 27 0;
#X connect 27 0 39 0;
#X connect 28 0 27 1;
#X connect 29 0 64 0;
#X connect 30 0 28 0;
#X connect 31 0 63 2;
#X connect 33 0 63 3;
#X connect 35 0 63 4;
#X connect 36 0 63 5;
#X connect 39 0 29 0;
#X connect 52 0 46 0;
#X connect 53 0 47 0;
#X connect 54 0 60 1;
#X connect 55 0 50 0;
#X connect 56 0 49 0;
#X connect 57 0 51 0;
#X connect 58 0 56 0;
#X connect 58 0 54 0;
#X connect 58 0 52 0;
#X connect 58 0 53 0;
#X connect 58 0 57 0;
#X connect 58 0 55 0;
#X connect 58 0 61 0;
#X connect 59 0 60 0;
#X connect 60 0 48 0;
#X connect 61 0 59 0;
#X connect 62 0 23 0;
#X connect 62 0 58 0;
#X connect 63 0 15 0;
#X connect 63 1 15 1;
#X connect 64 0 15 0;
#X connect 64 0 15 1;
#X connect 64 0 63 0;
#X connect 64 0 63 1;
#X connect 65 0 64 1;
#X connect 66 0 65 0;
#X connect 67 0 65 0;
#X connect 68 0 66 0;
#X connect 68 1 67 0;
#X connect 69 0 70 0;
#X connect 70 0 68 0;
